<svg width="260" height="261" viewBox="0 0 260 261" fill="none" xmlns="http://www.w3.org/2000/svg">
<path d="M258.918 222.721C265.189 210.312 247.267 148.262 123 148.262C33.3037 148.262 -7.86425 199.051 1.23717 224.79" fill="url(#paint0_radial_115_3680)"/>
<mask id="mask0_115_3680" style="mask-type:luminance" maskUnits="userSpaceOnUse" x="0" y="148" width="260" height="77">
<path d="M258.918 222.721C265.189 210.312 247.267 148.262 123 148.262C33.3037 148.262 -7.86425 199.051 1.23717 224.79" fill="white"/>
</mask>
<g mask="url(#mask0_115_3680)">
<ellipse opacity="0.671968" cx="103.833" cy="203.058" rx="6.83411" ry="3.79601" fill="url(#paint1_linear_115_3680)"/>
<ellipse opacity="0.256348" cx="173.588" cy="177.264" rx="10.7827" ry="5.92178" fill="url(#paint2_linear_115_3680)"/>
<ellipse opacity="0.729957" cx="50.876" cy="161.472" rx="10.7827" ry="5.92178" fill="url(#paint3_linear_115_3680)"/>
</g>
<path opacity="0.5" d="M101.3 162.023C101.3 162.023 127.743 174.457 138.234 179.229C146.543 183.009 189.329 195.1 194.426 191.663C199.523 188.226 210.777 178.793 207.062 172.33C203.347 165.868 183.807 154.263 174.462 152.568C165.117 150.872 138.397 158.58 138.397 158.58L115.605 162.494L101.3 162.023Z" fill="url(#paint4_linear_115_3680)"/>
<path d="M120.901 106.429L91.4341 128.096L99.291 109.662L128.801 90.9279L120.901 106.429Z" fill="#E2E7EC"/>
<path d="M98.8003 110.043L128.8 91.2625V142.482L101.3 161.762L98.8003 110.043Z" fill="#D8DFE6"/>
<path d="M128.801 91.2625L174.801 102.024V153.262L128.801 142.501V91.2625Z" fill="#E9EFF1"/>
<path d="M98.8003 110.04L145.8 121.024V172.262L101.3 162.044L98.8003 110.04Z" fill="#E8EAEB"/>
<path d="M144.8 121.043L174.8 102.262V153.482L144.8 172.262V121.043Z" fill="#D8DFE6"/>
<mask id="mask1_115_3680" style="mask-type:luminance" maskUnits="userSpaceOnUse" x="144" y="102" width="31" height="71">
<path d="M144.8 121.043L174.8 102.262V153.482L144.8 172.262V121.043Z" fill="white"/>
</mask>
<g mask="url(#mask1_115_3680)">
<rect x="155.943" y="97.9941" width="9.42857" height="78.5366" fill="#725CAD"/>
</g>
<path d="M158.29 136.262L187.8 117.528L174.31 102.262L144.8 120.997L158.29 136.262Z" fill="#E2E7EC"/>
<path opacity="0.5" d="M75.787 163.314L122.2 187.029L126.533 174.463L80.9949 159.314L75.787 163.314Z" fill="url(#paint5_linear_115_3680)"/>
<path d="M74.5199 124.329L90.5239 125.591L86.97 160.403C86.97 160.403 86.6588 160.751 85.9037 160.615C85.1486 160.48 84.3565 160.06 84.3565 160.06L81.9763 132.386C81.9763 132.386 80.5996 142.171 80.6958 144.925C80.7682 146.999 81.4774 149.529 81.857 151.694C82.1837 153.556 82.871 158.008 82.871 158.008C82.871 158.008 82.0589 158.379 81.6269 158.463C81.195 158.547 80.6413 158.086 80.6413 158.086C80.6413 158.086 75.03 147.194 74.9578 145.125C74.8856 143.056 74.5199 124.329 74.5199 124.329Z" fill="url(#paint6_linear_115_3680)"/>
<path d="M80.3927 158.035C80.3927 158.035 79.6799 159.319 78.7944 160.101C77.9089 160.884 76.1615 161.818 75.7632 162.243C75.3648 162.667 75.7999 163.293 75.7999 163.293L80.0825 163.143L83.5045 160.248L83.0264 157.489L80.3927 158.035Z" fill="#677285"/>
<path d="M87.3732 159.521L88.373 162.294C88.373 162.294 86.7312 163.566 84.4627 163.92C82.1942 164.274 80.6311 163.73 80.6311 163.73C80.6311 163.73 80.2214 162.905 80.9934 162.552C81.348 162.39 82.1426 161.716 82.8403 160.854C83.1553 160.465 84.3417 159.627 84.3417 159.627L87.3732 159.521Z" fill="#677285"/>
<path d="M94.5422 106.18C94.5422 106.18 95.8539 108.175 96.6583 107.641C97.4626 107.107 102.484 101.961 102.484 101.961C102.484 101.961 103.977 100.811 104.254 101.084C104.53 101.357 103.756 101.961 103.756 101.961C103.756 101.961 105.386 102.121 105.895 102.121C106.404 102.121 107.475 102.934 106.775 103.207C106.074 103.481 103.357 103.549 103.357 103.549C103.357 103.549 99.2321 111.35 97.0825 111.903C94.9328 112.456 91.9712 109.328 91.9712 109.328L94.5422 106.18Z" fill="#FDE7E6"/>
<path d="M73.5837 106.323C73.5837 106.323 72.7236 108.084 71.9442 107.661C71.1648 107.239 66.7918 102.627 66.7918 102.627C66.7918 102.627 65.3355 101.735 64.9793 101.896C64.6232 102.056 65.5012 102.627 65.5012 102.627C65.5012 102.627 63.3586 102.801 62.9555 102.963C62.5525 103.125 62.083 103.622 62.6924 103.848C63.3019 104.074 65.6346 104.234 65.6346 104.234C65.6346 104.234 68.8776 110.642 71.3346 111.392C73.7915 112.141 75.8847 109.189 75.8847 109.189L73.5837 106.323Z" fill="#FDE7E6"/>
<path d="M81.5387 100.929V97.781C81.5387 97.781 79.9063 97.8636 79.2427 96.7705C78.5791 95.6774 78.3999 92.5754 78.3999 92.5754L78.8999 91.1372L83.8168 90.9294L86.3999 93.1307L85.1972 95.2549L84.9679 95.6632L86.1143 100.491L81.5387 100.929Z" fill="#FDE7E6"/>
<mask id="mask2_115_3680" style="mask-type:luminance" maskUnits="userSpaceOnUse" x="78" y="90" width="9" height="11">
<path d="M81.5387 100.929V97.781C81.5387 97.781 79.9063 97.8636 79.2427 96.7705C78.5791 95.6774 78.3999 92.5754 78.3999 92.5754L78.8999 91.1372L83.8168 90.9294L86.3999 93.1307L85.1972 95.2549L84.9679 95.6632L86.1143 100.491L81.5387 100.929Z" fill="white"/>
</mask>
<g mask="url(#mask2_115_3680)">
<path d="M84.7366 94.7895C83.2836 96.5967 80.7703 97.8597 80.443 97.8597C80.1158 97.8597 82.2705 100.126 82.2705 100.126L84.0235 100.93L86.5117 100.402L87.3999 97.8597L85.8318 94.9748C85.8318 94.9748 86.1897 92.9823 84.7366 94.7895Z" fill="url(#paint7_linear_115_3680)"/>
</g>
<path d="M72.5391 107.588L74.9553 110.842L76.4963 109.215C76.4963 109.215 75.3243 115.641 74.9553 118.723C74.5863 121.805 74.5177 124.875 74.5177 124.875C74.5177 124.875 78.3867 126.311 81.2708 126.553C84.155 126.794 90.8693 126.172 90.8693 126.172L90.0026 108.083L92.5172 110.418L95.47 107.008C95.47 107.008 90.3871 99.1972 89.4259 98.7422C88.4647 98.2871 85.7927 98.7422 85.7927 98.7422C85.7927 98.7422 83.8965 100.986 83.1277 101.017C82.3588 101.049 80.6533 98.7422 80.6533 98.7422C80.6533 98.7422 77.9285 98.307 77.1362 99.1972C76.3439 100.087 72.5391 107.588 72.5391 107.588Z" fill="url(#paint8_linear_115_3680)"/>
<path d="M78.4001 92.6106C78.4001 92.6106 78.9795 91.1484 79.7359 91.4031C80.4517 91.6442 81.0717 92.2179 81.9623 92.4872C82.8528 92.7565 82.9512 91.5467 83.5564 91.751C84.1616 91.9553 83.7621 93.735 84.1886 94.0664C84.6152 94.3979 84.6152 91.751 85.5245 92.4636C86.4338 93.1762 84.5758 95.1818 84.5758 95.1818C84.5758 95.1818 84.814 96.4145 84.8904 96.4984C84.9667 96.5822 84.958 95.6015 84.958 95.6015C84.958 95.6015 85.8264 95.2682 86.1965 93.7646C86.5666 92.2611 86.7266 91.6625 86.1965 90.57C85.6664 89.4776 85.5153 88.622 84.1886 88.1067C82.862 87.5913 81.8554 87.7929 80.9281 88.1067C80.0009 88.4204 79.3289 89.0439 78.9001 89.6643C77.9001 91.137 78.4001 92.6106 78.4001 92.6106Z" fill="#4D364F"/>
<path fill-rule="evenodd" clip-rule="evenodd" d="M167.801 54.0475C166.747 54.3696 144.932 67.4218 144.932 67.4218L151.298 67.8965L155.822 72.8962C155.822 72.8962 168.854 53.7254 167.801 54.0475Z" fill="#283455"/>
<mask id="mask3_115_3680" style="mask-type:luminance" maskUnits="userSpaceOnUse" x="144" y="54" width="24" height="19">
<path fill-rule="evenodd" clip-rule="evenodd" d="M167.801 54.0475C166.747 54.3696 144.932 67.4218 144.932 67.4218L151.298 67.8965L155.822 72.8962C155.822 72.8962 168.854 53.7254 167.801 54.0475Z" fill="white"/>
</mask>
<g mask="url(#mask3_115_3680)">
<path fill-rule="evenodd" clip-rule="evenodd" d="M151.298 67.8964L167.8 54.0473L155.822 72.896L151.298 67.8964Z" fill="#725CAD"/>
</g>
<path fill-rule="evenodd" clip-rule="evenodd" d="M164.525 69.172L156.875 68.3724L167.809 54.1823L164.525 69.172Z" fill="#283455"/>
<path d="M134.964 117.349C134.371 117.729 133.765 118.11 133.145 118.492L132.69 117.754C133.306 117.375 133.908 116.997 134.497 116.62L134.964 117.349ZM140.724 113.379C139.823 114.052 138.879 114.729 137.892 115.409L137.4 114.694C138.379 114.021 139.313 113.352 140.204 112.685L140.724 113.379ZM146.113 108.9C145.297 109.665 144.422 110.434 143.488 111.207L142.937 110.539C143.856 109.777 144.718 109.021 145.521 108.268L146.113 108.9ZM150.785 103.722C150.125 104.621 149.381 105.524 148.553 106.433L147.912 105.849C148.721 104.962 149.446 104.082 150.087 103.209L150.785 103.722ZM127.954 98.448C128.907 99.2164 129.876 99.7199 130.862 99.9626L130.654 100.803C129.539 100.529 128.458 99.9666 127.41 99.1218L127.954 98.448ZM154.049 97.4353C153.726 98.5217 153.272 99.6159 152.688 100.718L151.923 100.311C152.481 99.2592 152.913 98.2182 153.219 97.1882L154.049 97.4353ZM137.529 99.0603C136.441 99.8405 135.367 100.387 134.309 100.697L134.065 99.865C135.025 99.5843 136.011 99.0822 137.024 98.3562L137.529 99.0603ZM142.481 94.0515C141.71 95.0477 140.948 95.9368 140.194 96.7185L139.57 96.1169C140.301 95.3588 141.043 94.4935 141.796 93.5212L142.481 94.0515ZM123.93 93.1003C124.253 93.9421 124.76 94.8332 125.457 95.7722C125.511 95.8443 125.564 95.9158 125.618 95.9861L124.93 96.5125C124.874 96.4391 124.818 96.364 124.762 96.2888C124.019 95.2895 123.473 94.3305 123.12 93.4109L123.93 93.1003ZM154.106 90.3142C154.35 90.8792 154.506 91.4696 154.571 92.0828C154.635 92.6796 154.657 93.2798 154.638 93.8826L153.771 93.8542C153.79 93.2916 153.77 92.7314 153.71 92.1746C153.654 91.6484 153.52 91.1426 153.311 90.657L154.106 90.3142ZM146.373 88.241C145.75 89.2915 145.132 90.2768 144.521 91.197L143.799 90.7175C144.402 89.8099 145.012 88.8367 145.628 87.7986L146.373 88.241ZM125.41 87.2673C124.474 88.0406 123.873 88.9286 123.627 89.9187L122.785 89.7097C123.078 88.5284 123.786 87.4849 124.858 86.5994L125.41 87.2673ZM148.726 85.5369C149.907 86.0694 150.938 86.6865 151.792 87.3816L151.245 88.0535C150.453 87.4086 149.485 86.83 148.369 86.3269L148.726 85.5369ZM131.566 84.7136C130.377 84.948 129.281 85.2586 128.306 85.6394L127.99 84.8318C129.015 84.4315 130.161 84.107 131.398 83.863L131.566 84.7136ZM149.698 82.1238C149.158 83.1984 148.621 84.2273 148.089 85.2097L147.327 84.7966C147.855 83.8224 148.387 82.8017 148.924 81.7351L149.698 82.1238ZM141.924 83.6628C143.119 83.833 144.276 84.067 145.372 84.3601L145.148 85.197C144.087 84.913 142.962 84.6866 141.801 84.5212L141.924 83.6628ZM138.383 83.3513L138.352 84.2175C137.199 84.1765 136.05 84.1954 134.931 84.2742L134.87 83.4099C136.02 83.329 137.199 83.3092 138.383 83.3513ZM152.674 75.8396C152.187 76.9272 151.703 77.9791 151.223 78.9958L150.439 78.6257C150.917 77.6144 151.398 76.5674 151.883 75.4851L152.674 75.8396Z" fill="#C7D0D9"/>
<defs>
<radialGradient id="paint0_radial_115_3680" cx="0" cy="0" r="1" gradientUnits="userSpaceOnUse" gradientTransform="translate(112.763 174.802) rotate(-90) scale(44.4949 464.705)">
<stop stop-color="#EBEDF0" stop-opacity="0.24"/>
<stop offset="0.536775" stop-color="#EBEDF0" stop-opacity="0.845525"/>
<stop offset="1" stop-color="#E0E4E7" stop-opacity="0.01"/>
</radialGradient>
<linearGradient id="paint1_linear_115_3680" x1="98.3323" y1="202.052" x2="100.414" y2="206.504" gradientUnits="userSpaceOnUse">
<stop stop-color="#E1E7EA"/>
<stop offset="1" stop-color="#D0D6DC"/>
</linearGradient>
<linearGradient id="paint2_linear_115_3680" x1="164.534" y1="176.71" x2="168.344" y2="184.657" gradientUnits="userSpaceOnUse">
<stop stop-color="#E1E7EA"/>
<stop offset="1" stop-color="#D0D6DC"/>
</linearGradient>
<linearGradient id="paint3_linear_115_3680" x1="44.0007" y1="161.568" x2="46.1564" y2="170.156" gradientUnits="userSpaceOnUse">
<stop stop-color="#FBFBFB"/>
<stop offset="1" stop-color="#D9DFE3"/>
</linearGradient>
<linearGradient id="paint4_linear_115_3680" x1="97.4147" y1="166.334" x2="105.107" y2="200.83" gradientUnits="userSpaceOnUse">
<stop stop-color="#C4CDD1"/>
<stop offset="1" stop-color="#C6CFD3" stop-opacity="0.01"/>
</linearGradient>
<linearGradient id="paint5_linear_115_3680" x1="74.1765" y1="169.807" x2="83.0995" y2="193.094" gradientUnits="userSpaceOnUse">
<stop stop-color="#C4CDD1"/>
<stop offset="1" stop-color="#C6CFD3" stop-opacity="0.01"/>
</linearGradient>
<linearGradient id="paint6_linear_115_3680" x1="91.6809" y1="160.466" x2="90.4092" y2="124.05" gradientUnits="userSpaceOnUse">
<stop stop-color="#A1A7B8"/>
<stop offset="1" stop-color="#7B8195"/>
</linearGradient>
<linearGradient id="paint7_linear_115_3680" x1="85.4252" y1="98.8158" x2="85.4252" y2="95.7652" gradientUnits="userSpaceOnUse">
<stop stop-color="#FBD8D6"/>
<stop offset="1" stop-color="#EAC0BE" stop-opacity="0.7"/>
</linearGradient>
<linearGradient id="paint8_linear_115_3680" x1="60.9387" y1="111.347" x2="85.0475" y2="136.78" gradientUnits="userSpaceOnUse">
<stop stop-color="#E5E9F0"/>
<stop offset="1" stop-color="#D2DAE8"/>
</linearGradient>
</defs>
</svg>
