<?xml version="1.0" encoding="UTF-8"?>
<svg id="Layer_2" data-name="Layer 2" xmlns="http://www.w3.org/2000/svg" viewBox="0 0 166.29 93.14">
  <defs>
    <style>
      .cls-1 {
        fill: #725CAD;
      }
    </style>
  </defs>
  <g id="Layer_1-2" data-name="Layer 1">
    <g>
      <rect class="cls-1" x="24.35" y="38.12" width="15.46" height="15.46" rx=".98" ry=".98" transform="translate(41.81 -9.26) rotate(45)"/>
      <rect class="cls-1" x="127.42" y="4.19" width="16.22" height="16.22" rx=".68" ry=".68" transform="translate(48.4 -92.23) rotate(45)"/>
      <rect class="cls-1" x="146.99" y="3.08" width="16.22" height="16.22" rx=".68" ry=".68" transform="translate(53.34 -106.39) rotate(45)"/>
      <rect class="cls-1" x="107.85" y="5.31" width="16.22" height="16.22" rx=".68" ry=".68" transform="translate(43.45 -78.07) rotate(45)"/>
      <path class="cls-1" d="M17.37,56.75l1.01,9.4c.21,1.95,1.85,3.42,3.81,3.42h136.42c1.79,0,3.18,1.55,2.99,3.33l-1.36,12.68c-.46,4.3-4.09,7.56-8.41,7.56H16.35c-4.32,0-7.95-3.26-8.41-7.56l-1.72-16.01-1.35-12.82-.39-3.55-.06-.54L.05,11.8C-.48,6.8,3.43,2.44,8.46,2.44h46.84c3.11,0,5.64,2.52,5.64,5.64v36.09l98.71-15.64c3.44-.55,6.46,2.33,6.09,5.79l-2.13,22.01c-.15,1.54-1.45,2.72-3,2.72H51.39c-1.66,0-3.01-1.35-3.01-3.01v-25.69c0-2.12-1.72-3.84-3.84-3.84h-26.14c-2.28,0-4.06,1.98-3.81,4.24l3.49,32.65"/>
    </g>
  </g>
</svg>