<svg width="43" height="50" viewBox="0 0 43 50" fill="none" xmlns="http://www.w3.org/2000/svg">
<mask id="mask0_49_814" style="mask-type:luminance" maskUnits="userSpaceOnUse" x="0" y="0" width="43" height="50">
<path d="M0 0H42.6022V49.1902H0V0Z" fill="white"/>
</mask>
<g mask="url(#mask0_49_814)">
<path fill-rule="evenodd" clip-rule="evenodd" d="M20.0129 45.521L11.8283 40.7974L3.64364 36.0714L11.2267 31.6932L20.0129 36.7668V45.521ZM22.4514 36.7668L40.033 26.6126V33.9601L34.9502 31.0206L32.5232 32.4183L38.8184 36.0508L30.6337 40.7768L22.4514 45.521V36.7668ZM31.2376 17.3369L22.4514 12.2541V3.49986L30.6337 8.22352L38.8184 12.9495L31.2376 17.3369ZM40.033 15.0608L42.4623 13.654V12.2655L41.8493 11.9087L31.8484 6.13276L21.8383 0.345411L21.2253 0L20.6145 0.345411L10.6136 6.13276L0.612713 11.9087L0.00195312 12.2655V25.2036L0.612713 25.5604L2.42898 26.6126L8.79735 30.2864L2.42898 33.9601L0.00195312 35.3669V36.7554L0.612713 37.1122L10.6136 42.8881L20.6237 48.664L21.2367 49.0117L21.8475 48.664L31.8598 42.8881L41.8584 37.1122L42.4715 36.7554V23.8173L40.0422 22.4082L33.6761 18.7345L40.033 15.0608ZM21.2367 14.3563L14.9393 17.9888L12.5122 16.5912L20.0221 12.2541V3.49986L11.8374 8.22352L3.64364 12.9586L29.9612 28.1544L27.5319 29.5521L2.44042 15.0608V22.4082L7.52093 19.4803L9.95024 20.8779L3.65507 24.5104L21.2459 34.6646L38.8389 24.5104L21.2367 14.3563Z" fill="#ffffff"/>
</g>
</svg>
